Stealing Beauty (1996)

After her mother commits suicide, nineteen year old Lucy Harmon travels to Italy to have her picture painted. However, she has other reasons for wanting to go. She wants to renew her acquaintance with Nicolo Donati, a young boy with whom she fell in love on her last visit four years ago. She also is trying tosolve the riddle left in a diary written by her dead mother, Sara.
 
Format                           : AVI
Format/Info                      : Audio Video Interleave
File size                        : 750 MiB
Duration                         : 1h 58mn
Overall bit rate                 : 888 Kbps
Writing application              : VirtualDubMod 1.5.4.1 (build 2178/release)
Writing library                  : VirtualDubMod build 2178/release
Language                         : English
Subtitles                        : English(*.srt)
Genre                            : Drama | Romance

Video
ID                               : 0
Format                           : MPEG-4 Visual
Format profile                   : Advanced Simple@L5
Format settings, BVOP            : Yes
Format settings, QPel            : No
Format settings, GMC             : No warppoints
Format settings, Matrix          : Custom
Codec ID                         : XVID
Codec ID/Hint                    : XviD
Duration                         : 1h 58mn
Bit rate                         : 761 Kbps
Width                            : 624 pixels
Height                           : 272 pixels
Display aspect ratio             : 2.25:1
Frame rate                       : 23.976 fps
Color space                      : YUV
Chroma subsampling               : 4:2:0
Bit depth                        : 8 bits
Scan type                        : Progressive
Bits/(Pixel*Frame)               : 0.187
Stream size                      : 643 MiB (86%)
Writing library                  : XviD 1.2.1 (UTC 2008-12-04)

Audio
ID                               : 1
Format                           : MPEG Audio
Format version                   : Version 1
Format profile                   : Layer 3
Mode                             : Joint stereo
Mode extension                   : MS Stereo
Codec ID                         : 55
Codec ID/Hint                    : MP3
Duration                         : 1h 58mn
Bit rate mode                    : Variable
Bit rate                         : 114 Kbps
Nominal bit rate                 : 128 Kbps
Channel(s)                       : 2 channels
Sampling rate                    : 48.0 KHz
Stream size                      : 96.2 MiB (13%)
Alignment                        : Aligned on interleaves
Interleave, duration             : 24 ms (0.58 video frame)
Interleave, preload duration     : 161 ms
Writing library                  : LAME3.98r
Encoding settings                : -m j -V 4 -q 2 -lowpass 17 --abr 128
 
http://leetleech.org/images/06402331866564276672.png 
http://leetleech.org/images/26833875022383387783.png 
http://leetleech.org/images/03761390004473515596.png 
http://leetleech.org/images/26251603174185731530.png 
http://leetleech.org/images/18995352341741440901.png 
http://leetleech.org/images/08506284671788948778.png
 
http://www.youtube.com/watch?v=A_vhVORv-Lk
 
http://www.imdb.com/title/tt0117737/
 
http://leetleech.org/images/97913465899887526311.png